<svg width="20" height="20" viewBox="0 0 20 20" fill="none" xmlns="http://www.w3.org/2000/svg">
<g clip-path="url(#clip0_2024_4966)">
<path d="M7.93787 10.652V10.152H7.43787H5.44858V7.22652H7.54591H8.04591V6.72652V4.2909V4.24818L8.03867 4.20607C8.00436 4.00682 7.83495 2.7012 9.01763 1.60179C10.1108 0.585749 11.513 0.5 11.9215 0.5C11.9733 0.5 12.0056 0.501293 12.0154 0.501777L12.0278 0.502387H12.0401H14.4486V3.19748H14.4476H14.4443H14.4409H14.4375H14.4341H14.4306H14.4272H14.4237H14.4202H14.4166H14.4131H14.4095H14.4059H14.4022H14.3986H14.3949H14.3912H14.3874H14.3837H14.3799H14.3761H14.3723H14.3685H14.3646H14.3607H14.3568H14.3529H14.349H14.345H14.341H14.337H14.333H14.3289H14.3249H14.3208H14.3167H14.3125H14.3084H14.3042H14.3H14.2958H14.2916H14.2874H14.2831H14.2788H14.2745H14.2702H14.2659H14.2615H14.2571H14.2527H14.2483H14.2439H14.2395H14.235H14.2305H14.2261H14.2215H14.217H14.2125H14.2079H14.2034H14.1988H14.1942H14.1896H14.1849H14.1803H14.1756H14.1709H14.1662H14.1615H14.1568H14.1521H14.1473H14.1426H14.1378H14.133H14.1282H14.1234H14.1186H14.1137H14.1089H14.104H14.0991H14.0942H14.0893H14.0844H14.0795H14.0745H14.0696H14.0646H14.0596H14.0547H14.0497H14.0447H14.0396H14.0346H14.0296H14.0245H14.0195H14.0144H14.0093H14.0042H13.9991H13.994H13.9889H13.9838H13.9787H13.9735H13.9684H13.9632H13.9581H13.9529H13.9477H13.9425H13.9373H13.9321H13.9269H13.9217H13.9165H13.9112H13.906H13.9008H13.8955H13.8903H13.885H13.8797H13.8745H13.8692H13.8639H13.8586H13.8533H13.848H13.8427H13.8374H13.8321H13.8268H13.8215H13.8161H13.8108H13.8055H13.8001H13.7948H13.7895H13.7841H13.7788H13.7734H13.7681H13.7627H13.7574H13.752H13.7466H13.7413H13.7359H13.7306H13.7252H13.7198H13.7145H13.7091H13.7037H13.6983H13.693H13.6876H13.6822H13.6769H13.6715H13.6661H13.6608H13.6554H13.65H13.6447H13.6393H13.6339H13.6286H13.6232H13.6179H13.6125H13.6071H13.6018H13.5964H13.5911H13.5858H13.5804H13.5751H13.5697H13.5644H13.5591H13.5538H13.5484H13.5431H13.5378H13.5325H13.5272H13.5219H13.5166H13.5113H13.5061H13.5008H13.4955H13.4902H13.485H13.4797H13.4745H13.4692H13.464H13.4588H13.4535H13.4483H13.4431H13.4379H13.4327H13.4275H13.4224H13.4172H13.412H13.4069H13.4017H13.3966H13.3915H13.3863H13.3812H13.3761H13.371H13.3659H13.3609H13.3558H13.3507H13.3457H13.3407H13.3356H13.3306H13.3256H13.3206H13.3156H13.3107H13.3057H13.3007H13.2958H13.2909H13.286H13.2811H13.2762H13.2713H13.2664H13.2616H13.2567H13.2519H13.2471H13.2423H13.2375H13.2327H13.228H13.2232H13.2185H13.2138H13.2091H13.2044H13.1997H13.195H13.1904H13.1858H13.1812H13.1766H13.172H13.1674H13.1628H13.1583H13.1538H13.1493H13.1448H13.1403H13.1359H13.1314H13.127H13.1226H13.1182H13.1139H13.1095H13.1052H13.1009H13.0966H13.0923H13.088H13.0838H13.0796H13.0754H13.0712H13.067H13.0629H13.0587H13.0546H13.0506H13.0465H13.0424H13.0384H13.0344H13.0304H13.0265H13.0225H13.0186H13.0147H13.0108H13.007H13.0031H12.9993H12.9955H12.9918H12.988H12.9843H12.9806H12.9769H12.9732H12.9696H12.966H12.9624H12.9589H12.9553H12.9518H12.9483H12.9449H12.9414H12.938H12.9346H12.9312H12.9279H12.9246H12.9213H12.918H12.9148H12.9116H12.9084H12.9052H12.9021H12.899H12.8959H12.8928H12.8898H12.8868H12.8838H12.8809H12.8779H12.8751H12.8722H12.8694H12.8665H12.8638H12.861H12.8583H12.8556H12.8529H12.8503H12.8477H12.8451H12.8426H12.84H12.8375H12.8351H12.8327H12.8303H12.8279H12.8255H12.8232H12.821H12.8187H12.8165H12.8143H12.8122H12.8101H12.808H12.8059H12.8039H12.8019H12.7999H12.798H12.7961H12.7943H12.7924H12.7906H12.7889H12.7872H12.7855H12.7838H12.7822H12.7806H12.779H12.7775H12.776H12.7746H12.7731H12.7718H12.7704H12.7691H12.7678H12.7666H12.7654H12.7642H12.7631H12.762H12.7609H12.7599H12.7589H12.758H12.7571H12.7562H12.7553H12.7545H12.7538H12.7531H12.7524H12.7517H12.7511H12.7506C12.3478 3.19748 11.9539 3.29436 11.6611 3.57291C11.3637 3.8558 11.2559 4.24437 11.2559 4.64374V6.72658V7.22658H11.7559H14.4271L14.0887 10.1945H11.7558H11.2558V10.6945V19.5H7.93787V10.652ZM14.6293 3.3749L14.6293 3.19748C14.6293 3.19748 14.6293 3.19748 14.6293 3.19748V3.3749V3.69748L14.6293 3.3749ZM14.0707 10.3523C14.0708 10.3521 14.0708 10.3519 14.0708 10.3517L14.0708 10.3521L14.0707 10.3523Z" stroke="white"/>
</g>
<defs>
<clipPath id="clip0_2024_4966">
<rect width="20" height="20" fill="white"/>
</clipPath>
</defs>
</svg>
