<svg width="20" height="20" viewBox="0 0 20 20" fill="none" xmlns="http://www.w3.org/2000/svg">
<g clip-path="url(#clip0_2132_4065)">
<path d="M11.6668 1.66681H5.00016C4.55814 1.66681 4.13421 1.8424 3.82165 2.15496C3.50909 2.46752 3.3335 2.89145 3.3335 3.33348V16.6668C3.3335 17.1088 3.50909 17.5328 3.82165 17.8453C4.13421 18.1579 4.55814 18.3335 5.00016 18.3335H15.0002C15.4422 18.3335 15.8661 18.1579 16.1787 17.8453C16.4912 17.5328 16.6668 17.1088 16.6668 16.6668V6.66681L11.6668 1.66681Z" stroke="white" stroke-width="1.5" stroke-linecap="round" stroke-linejoin="round"/>
<path d="M11.6665 1.66681V6.66681H16.6665" stroke="white" stroke-width="1.5" stroke-linecap="round" stroke-linejoin="round"/>
<path d="M13.3332 10.8334H6.6665" stroke="white" stroke-width="1.5" stroke-linecap="round" stroke-linejoin="round"/>
<path d="M13.3332 14.1668H6.6665" stroke="white" stroke-width="1.5" stroke-linecap="round" stroke-linejoin="round"/>
<path d="M8.33317 7.50012H7.49984H6.6665" stroke="white" stroke-width="1.5" stroke-linecap="round" stroke-linejoin="round"/>
</g>
<defs>
<clipPath id="clip0_2132_4065">
<rect width="20" height="20" fill="white"/>
</clipPath>
</defs>
</svg>
