<svg width="20" height="20" viewBox="0 0 20 20" fill="none" xmlns="http://www.w3.org/2000/svg">
<g clip-path="url(#clip0_2002_4972)">
<mask id="mask0_2002_4972" style="mask-type:luminance" maskUnits="userSpaceOnUse" x="0" y="0" width="20" height="21">
<path d="M20 0.00012207H0V20.0001H20V0.00012207Z" fill="white"/>
</mask>
<g mask="url(#mask0_2002_4972)">
<path d="M18.7508 0.913778C13.8586 2.83075 8.96498 4.74772 4.07139 6.6634C2.91475 7.11598 1.75679 7.56986 0.598823 8.02114C0.318585 8.13039 0.100476 8.29555 0.0264504 8.59858C-0.0792997 9.03165 0.134844 9.37629 0.618651 9.55966C2.13881 10.1319 3.65897 10.7067 5.18177 11.2737C5.30603 11.3206 5.3589 11.3856 5.39195 11.5104C5.81627 13.1114 6.2472 14.7097 6.67681 16.3094C6.70457 16.4147 6.74026 16.5175 6.80239 16.6085C7.06941 17.0077 7.56247 17.078 7.99737 16.7711C8.81165 16.1975 9.62724 15.6253 10.4336 15.0414C10.5764 14.9386 10.6649 14.9295 10.8156 15.0323C12.3979 16.0987 13.9855 17.156 15.573 18.2133C16.1534 18.5996 16.7429 18.3694 16.8896 17.6957C16.9848 17.2588 17.0628 16.8179 17.1487 16.3783C17.5717 14.1934 17.9947 12.0072 18.4177 9.82237C18.8672 7.49833 19.3153 5.1756 19.77 2.85286C19.8387 2.49912 19.8718 2.13627 20.0013 1.79553V1.41058C19.7158 0.807135 19.3734 0.67058 18.7522 0.915079L18.7508 0.913778ZM6.79975 10.6547C6.71515 10.3113 6.51026 10.102 6.17847 9.97973C5.16459 9.60518 4.15467 9.21893 3.14211 8.83657C3.09453 8.81837 3.04826 8.79756 2.97424 8.76765C7.18441 7.11988 11.3708 5.48122 15.5797 3.83475C15.5823 3.97131 15.499 4.00382 15.4488 4.05064C12.8183 6.54375 10.1851 9.03685 7.5519 11.5273C7.39592 11.6756 7.24522 11.8239 7.17252 12.0397C7.04694 11.5781 6.91343 11.119 6.79975 10.6547ZM7.93656 14.8944C7.73828 14.1557 7.54529 13.4378 7.35362 12.7238C7.97225 13.14 8.58957 13.5536 9.22672 13.9814C8.79314 14.2884 8.37543 14.5849 7.93656 14.8957V14.8944ZM15.5532 16.2795C15.4739 16.2899 15.4369 16.2378 15.392 16.2079C13.3893 14.8736 11.388 13.538 9.38534 12.2023C9.29281 12.1412 9.21482 12.11 9.34304 11.989C12.1904 9.30086 15.0324 6.60747 17.8758 3.91539C17.889 3.90238 17.9062 3.89328 17.959 3.85296C17.1514 8.01854 16.3516 12.1503 15.5519 16.2795H15.5532Z" fill="white"/>
</g>
</g>
<defs>
<clipPath id="clip0_2002_4972">
<rect width="20" height="20" fill="white"/>
</clipPath>
</defs>
</svg>
