<svg width="20" height="20" viewBox="0 0 20 20" fill="none" xmlns="http://www.w3.org/2000/svg">
<path d="M19.1668 2.50014C18.3688 3.06304 17.4853 3.49356 16.5502 3.77514C16.0483 3.19807 15.3813 2.78905 14.6394 2.60341C13.8974 2.41777 13.1164 2.46447 12.4019 2.73718C11.6874 3.0099 11.0739 3.49547 10.6443 4.12824C10.2148 4.761 9.98991 5.51042 10.0002 6.27514V7.10847C8.53569 7.14645 7.08456 6.82165 5.776 6.16301C4.46745 5.50437 3.34209 4.53234 2.50016 3.33347C2.50016 3.33347 -0.833171 10.8335 6.66683 14.1668C4.9506 15.3318 2.90613 15.9159 0.833496 15.8335C8.3335 20.0001 17.5002 15.8335 17.5002 6.25014C17.4994 6.01802 17.4771 5.78647 17.4335 5.55847C18.284 4.71972 18.8842 3.66073 19.1668 2.50014Z" stroke="white" stroke-width="1.5" stroke-linecap="round" stroke-linejoin="round"/>
</svg>
